<svg xmlns="http://www.w3.org/2000/svg" width="1390" height="1035" fill="none"><defs><linearGradient id="b" x1="-456.913" x2="770.913" y1="323.138" y2="969.415" gradientUnits="userSpaceOnUse"><stop stop-color="#33D35E"/><stop offset="1" stop-color="#2AB6D9"/></linearGradient><filter id="a" width="1214.567" height="803" x="-.551" y="232" color-interpolation-filters="sRGB" filterUnits="userSpaceOnUse"><feFlood flood-opacity="0" result="BackgroundImageFix"/><feColorMatrix in="SourceAlpha" result="hardAlpha" values="0 0 0 0 0 0 0 0 0 0 0 0 0 0 0 0 0 0 127 0"/><feOffset dy="2"/><feGaussianBlur stdDeviation="25.667"/><feComposite in2="hardAlpha" k2="-1" k3="1" operator="out"/><feColorMatrix values="0 0 0 0 0 0 0 0 0 0 0 0 0 0 0 0 0 0 0.024 0"/><feBlend in2="BackgroundImageFix" result="effect_dropShadow_1"/><feBlend in="SourceGraphic" in2="effect_dropShadow_1" result="shape"/></filter></defs><g filter="url(#a)"><path fill="#2D314D" fill-rule="evenodd" d="M117.2 503.39c-36.24 0-54.39 43.82-28.76 69.44l134.28 134.28a100.019 100.019 0 0 0 70.71 29.28h70.7c26.52 0 51.95 10.54 70.7 29.29l161.04 161.03A100.028 100.028 0 0 0 666.58 956h388.85c72.54 0 108.87-87.7 57.57-138.99l-86.39-86.38c-19.41-19.41-5.66-52.6 21.79-52.6s41.2-33.19 21.78-52.6L874.85 430.11a99.986 99.986 0 0 0-70.71-29.29H569.7a100.01 100.01 0 0 1-70.71-29.29l-35.25-35.25A100.019 100.019 0 0 0 393.03 307H157.88c-51.25 0-76.92 61.96-40.68 98.19l28.76 28.76c25.63 25.63 7.48 69.44-28.76 69.44Z"/></g><path d="M222.72 707.11a100.019 100.019 0 0 0 70.71 29.28h70.7c26.52 0 51.95 10.54 70.7 29.29l161.04 161.03A100.028 100.028 0 0 0 666.58 956h343.99c89.09 0 133.7-107.72 70.7-170.72l-54.66-54.65c-19.41-19.41-5.66-52.6 21.79-52.6s41.2-33.19 21.78-52.6L874.85 430.11a99.986 99.986 0 0 0-70.71-29.29H569.7a100.01 100.01 0 0 1-70.71-29.29l-35.25-35.25A100.019 100.019 0 0 0 393.03 307H198.55c-66.26 0-99.44 80.1-52.59 126.95 25.63 25.63 7.48 69.44-28.76 69.44s-54.39 43.82-28.76 69.44l134.28 134.28Z"/><path fill="url(#b)" fill-rule="evenodd" d="M255.2 196.39c-36.24 0-54.39 43.82-28.76 69.44l134.28 134.28a100.019 100.019 0 0 0 70.71 29.28h70.7c26.52 0 51.95 10.54 70.7 29.29l161.04 161.03A100.028 100.028 0 0 0 804.58 649h388.85c72.54 0 108.87-87.7 57.57-138.99l-86.39-86.38c-19.42-19.41-5.67-52.6 21.79-52.6 27.45 0 41.2-33.19 21.78-52.6l-195.33-195.32a99.986 99.986 0 0 0-70.71-29.29H707.7a100.01 100.01 0 0 1-70.71-29.29l-35.25-35.25A100.019 100.019 0 0 0 531.03 0H295.88c-51.25 0-76.92 61.96-40.68 98.19l28.76 28.76c25.63 25.63 7.48 69.44-28.76 69.44Z"/><path d="M360.72 400.11a100.019 100.019 0 0 0 70.71 29.28h70.7c26.52 0 51.95 10.54 70.7 29.29l161.04 161.03A100.028 100.028 0 0 0 804.58 649h343.98c89.1 0 133.71-107.72 70.71-170.72l-54.66-54.65c-19.42-19.41-5.67-52.6 21.79-52.6 27.45 0 41.2-33.19 21.78-52.6l-195.33-195.32a99.986 99.986 0 0 0-70.71-29.29H707.7a100.01 100.01 0 0 1-70.71-29.29l-35.25-35.25A100.019 100.019 0 0 0 531.03 0H336.55c-66.26 0-99.44 80.1-52.59 126.95 25.63 25.63 7.48 69.44-28.76 69.44s-54.39 43.82-28.76 69.44l134.28 134.28Z"/></svg>